<?xml version="1.0" encoding="UTF-8" standalone="no"?>
<!-- Created with Inkscape (http://www.inkscape.org/) -->

<svg
   width="210mm"
   height="297mm"
   viewBox="0 0 210 297"
   version="1.1"
   id="svg1"
   inkscape:version="1.4.2 (2aeb623e1d, 2025-05-12)"
   sodipodi:docname="concise_logov1.svg"
   xmlns:inkscape="http://www.inkscape.org/namespaces/inkscape"
   xmlns:sodipodi="http://sodipodi.sourceforge.net/DTD/sodipodi-0.dtd"
   xmlns="http://www.w3.org/2000/svg"
   xmlns:svg="http://www.w3.org/2000/svg">
  <sodipodi:namedview
     id="namedview1"
     pagecolor="#ffffff"
     bordercolor="#111111"
     borderopacity="1"
     inkscape:showpageshadow="0"
     inkscape:pageopacity="0"
     inkscape:pagecheckerboard="1"
     inkscape:deskcolor="#d1d1d1"
     inkscape:document-units="mm"
     inkscape:zoom="0.64"
     inkscape:cx="257.03125"
     inkscape:cy="383.59375"
     inkscape:window-width="1920"
     inkscape:window-height="1011"
     inkscape:window-x="0"
     inkscape:window-y="32"
     inkscape:window-maximized="1"
     inkscape:current-layer="layer1" />
  <defs
     id="defs1" />
  <circle
     style="fill:#0057ff;fill-opacity:0.999965;fill-rule:evenodd;stroke:#ffffff;stroke-width:0;stroke-linecap:round;stroke-linejoin:round;paint-order:stroke fill markers"
     id="path2"
     cx="100.78767"
     cy="160.70549"
     r="90.431503" />
  <g
     inkscape:label="Layer 1"
     inkscape:groupmode="layer"
     id="layer1">
    <path
       id="path1"
       style="fill:#ffffff;fill-rule:evenodd;stroke:#ffffff;stroke-width:0;stroke-linecap:round;stroke-linejoin:round;paint-order:stroke fill markers"
       d="m 168.65755,161.26027 c 0,37.17709 -30.13798,67.31507 -67.31507,67.31507 -16.18153,0 -22.060404,-1.63705 -33.420611,-10.86884 -0.911928,-0.74107 -2.43545,-5.01451 -1.855031,-8.19727 1.775771,-9.73755 9.609646,-17.44484 6.409679,-20.79233 -2.981156,-3.11859 -14.258504,4.49734 -22.180351,4.82607 -3.823602,0.15867 -8.340939,-0.48622 -8.948387,-1.40158 -7.217538,-10.87547 -7.320367,-17.23176 -7.320367,-30.88108 0,-37.17709 30.137982,-67.315072 67.315068,-67.315072 13.89388,0 26.60012,4.013303 37.38471,11.286302 3.24272,2.18684 6.3117,4.66839 9.18699,7.42416 2.59353,2.48571 5.00737,5.2174 7.20371,8.15762 8.33676,11.16038 13.53966,25.32525 13.53966,40.44699 z"
       sodipodi:nodetypes="ssssssssssssss" />
    <path
       id="rect2"
       style="fill:#ff4a00;fill-opacity:0.99996501;fill-rule:evenodd;stroke:#ffffff;stroke-width:0;stroke-linecap:round;stroke-linejoin:round;paint-order:stroke fill markers"
       d="m 125.072,207.25856 11.79213,-11.2922 46.31106,48.08992 -17.245,4.4444 z"
       sodipodi:nodetypes="ccccc" />
    <rect
       style="fill:#ff4a00;fill-opacity:0.99996501;fill-rule:evenodd;stroke:#ffffff;stroke-width:0;stroke-linecap:round;stroke-linejoin:round;paint-order:stroke fill markers"
       id="rect3"
       width="61.944111"
       height="13.937402"
       x="-70.098701"
       y="223.50781"
       ry="4.6610279"
       transform="matrix(0.72451693,-0.689257,0.67097008,0.74148442,0,0)"
       rx="0" />
    <text
       xml:space="preserve"
       style="font-style:normal;font-variant:normal;font-weight:normal;font-stretch:normal;font-size:68.4242px;line-height:0px;font-family:'Noto Sans Anatolian Hieroglyphs';-inkscape-font-specification:'Noto Sans Anatolian Hieroglyphs, Normal';font-variant-ligatures:normal;font-variant-caps:normal;font-variant-numeric:normal;font-variant-east-asian:normal;text-align:start;letter-spacing:0px;writing-mode:lr-tb;direction:ltr;text-anchor:start;fill:#000000;fill-opacity:0.99996501;fill-rule:evenodd;stroke:#ffffff;stroke-width:0;stroke-linecap:round;stroke-linejoin:round;paint-order:stroke fill markers"
       x="-73.344093"
       y="260.23135"
       id="text4"
       transform="rotate(-47.163798)"><tspan
         sodipodi:role="line"
         id="tspan4"
         style="font-style:normal;font-variant:normal;font-weight:normal;font-stretch:normal;font-size:68.4242px;font-family:'Noto Sans Anatolian Hieroglyphs';-inkscape-font-specification:'Noto Sans Anatolian Hieroglyphs, Normal';font-variant-ligatures:normal;font-variant-caps:normal;font-variant-numeric:normal;font-variant-east-asian:normal;stroke-width:0;fill:#000000;fill-opacity:0.99996501"
         x="-73.344093"
         y="260.23135">S</tspan></text>
    <text
       xml:space="preserve"
       style="font-style:normal;font-variant:normal;font-weight:normal;font-stretch:normal;font-size:59.6416px;line-height:0px;font-family:'Noto Sans Buginese';-inkscape-font-specification:'Noto Sans Buginese, Normal';font-variant-ligatures:normal;font-variant-caps:normal;font-variant-numeric:normal;font-variant-east-asian:normal;text-align:start;letter-spacing:0px;writing-mode:lr-tb;direction:ltr;text-anchor:start;fill:#0057ff;fill-opacity:0.99;fill-rule:evenodd;stroke:#ffffff;stroke-width:0;stroke-linecap:round;stroke-linejoin:round;paint-order:stroke fill markers"
       x="48.764248"
       y="166.12816"
       id="text5"><tspan
         sodipodi:role="line"
         id="tspan5"
         style="font-style:normal;font-variant:normal;font-weight:normal;font-stretch:normal;font-size:59.6416px;font-family:'Noto Sans Buginese';-inkscape-font-specification:'Noto Sans Buginese, Normal';font-variant-ligatures:normal;font-variant-caps:normal;font-variant-numeric:normal;font-variant-east-asian:normal;fill:#0057ff;fill-opacity:0.99;stroke-width:0"
         x="48.764248"
         y="166.12816">T</tspan></text>
    <path
       d="m 85.244485,122.59877 h 5.911741 v 26.41354 c 0,4.6595 0.844534,8.01822 2.533603,10.07617 4.327245,5.22253 4.554419,-9.87044 8.340261,-9.87044 3.76643,0 4.24239,14.47228 8.05535,9.87044 1.68907,-2.05795 2.53361,-5.41667 2.53361,-10.07617 v -26.41354 h 5.91174 v 27.14159 c 0,5.66905 -1.40756,9.94997 -4.22267,12.84274 -2.7957,2.89277 -6.93101,4.33916 -12.40592,4.33916 -5.494329,0 -9.64905,-1.44639 -12.464165,-4.33916 -2.7957,-2.89277 -4.19355,-7.17369 -4.19355,-12.84274 z"
       id="text6"
       style="font-size:59.6416px;line-height:0px;font-family:'Noto Sans Buginese';-inkscape-font-specification:'Noto Sans Buginese, Normal';letter-spacing:0px;fill:#0057ff;fill-opacity:0.99;fill-rule:evenodd;stroke:#ffffff;stroke-width:0;stroke-linecap:round;stroke-linejoin:round;paint-order:stroke fill markers"
       aria-label="U"
       sodipodi:nodetypes="ccscscsccscscsc" />
    <path
       d="m 153.05104,126.32223 v 6.20296 c -1.98029,-1.84438 -4.09647,-3.22281 -6.34856,-4.1353 -2.23268,-0.91249 -4.61097,-1.36873 -7.13486,-1.36873 -2.23423,0 -5.47568,2.84954 -5.0516,5.42517 0.38403,2.33239 0.6131,3.40753 -0.32462,4.4866 -0.97109,1.11746 -2.34222,0.0482 -4.89976,0.2902 -3.15905,0.29891 -5.10037,4.80356 -5.10037,7.53325 0,5.7273 1.32019,10.115 3.96057,13.16309 2.64039,3.02867 6.44565,4.54301 11.41578,4.54301 2.52389,0 4.90218,-0.45624 7.13486,-1.36873 2.25209,-0.91248 4.36827,-2.29091 6.34856,-4.1353 v 6.14471 c -2.05794,1.39785 -4.24208,2.44624 -6.55242,3.14517 -2.29092,0.69892 -4.71774,1.04838 -7.28047,1.04838 -6.58154,0 -11.76523,-2.00941 -15.55108,-6.02822 -3.78584,-4.03824 -5.67876,-9.54228 -5.67876,-16.51211 0,-6.98925 1.89292,-12.49328 5.67876,-16.5121 3.78585,-4.03823 8.96954,-6.05735 15.55108,-6.05735 2.60155,0 5.04779,0.34946 7.33872,1.04839 2.31033,0.67951 4.47506,1.70848 6.49417,3.08691 z"
       id="text7"
       style="font-size:59.6416px;line-height:0px;font-family:'Noto Sans Buginese';-inkscape-font-specification:'Noto Sans Buginese, Normal';letter-spacing:0px;fill:#5292bf;fill-opacity:0.99;fill-rule:evenodd;stroke:#ffffff;stroke-width:0;stroke-linecap:round;stroke-linejoin:round;paint-order:stroke fill markers"
       aria-label="C"
       sodipodi:nodetypes="cccssssscsccccscscscc" />
  </g>
</svg>
